<?xml version="1.0" encoding="utf-8"?>
<!-- Generator: Adobe Illustrator 27.0.0, SVG Export Plug-In . SVG Version: 6.00 Build 0)  -->
<svg version="1.1" id="Ebene_1" xmlns="http://www.w3.org/2000/svg" xmlns:xlink="http://www.w3.org/1999/xlink" x="0px" y="0px"
	 viewBox="0 0 595.3 841.9" style="enable-background:new 0 0 595.3 841.9;" xml:space="preserve">
<style type="text/css">
	.st0{fill:none;stroke:#EEEEEE;stroke-width:5;stroke-miterlimit:10;}
</style>
<path class="st0" d="M415.4,480.5L387,463.2l24.6-15.3c4.5-2.8,6-9,3.4-13.8c-2.7-4.8-8.5-6.4-13-3.6l-33.8,21.1l-51-31.1l51-31.1
	l33.9,21.1c1.5,0.9,3.2,1.4,4.8,1.4c3.3,0,6.4-1.8,8.2-5c2.7-4.8,1.2-11-3.4-13.8L387,377.8l28.4-17.3c4.6-2.8,6.1-8.9,3.5-13.7
	c-2.6-4.8-8.5-6.5-13-3.7l-28.3,17.3l-0.3-30.1c0-5.6-4.4-10-9.6-10c-5.3,0-9.5,4.6-9.4,10.1l0.4,41.5l-51,31.1v-62.2l34.2-20.4
	c4.6-2.7,6.2-8.9,3.6-13.7c-2.6-4.8-8.4-6.5-13-3.8l-24.8,14.8v-34.6c0-5.6-4.3-10.1-9.5-10.1c-5.3,0-9.5,4.5-9.5,10.1v34.6
	l-24.8-14.8c-4.6-2.7-10.4-1-13,3.8c-2.6,4.8-1,11,3.6,13.7l34.2,20.4v62.2l-51-31.1l0.4-41.5c0-5.6-4.2-10.1-9.4-10.1h-0.1
	c-5.2,0-9.5,4.4-9.5,10l-0.3,30.1l-28.3-17.3c-4.6-2.8-10.4-1.1-13,3.7c-2.6,4.8-1.1,11,3.5,13.7l28.4,17.3l-24.6,15.3
	c-4.5,2.8-6,9-3.4,13.8c1.8,3.2,5,5,8.2,5c1.6,0,3.3-0.4,4.8-1.4l33.9-21.1l51,31.1l-51,31.1l-33.8-21.1c-4.5-2.8-10.4-1.2-13,3.6
	c-2.7,4.8-1.2,11,3.4,13.8l24.6,15.3l-28.3,17.3c-4.6,2.8-6.1,8.9-3.5,13.7c1.8,3.2,5,5,8.3,5c1.6,0,3.3-0.4,4.8-1.3l28.3-17.3
	l0.3,30.1c0,5.5,4.3,10,9.5,10h0.1c5.3-0.1,9.5-4.6,9.4-10.2l-0.4-41.5l51-31.1v62.2l-34.2,20.4c-4.6,2.7-6.2,8.9-3.6,13.7
	c1.8,3.3,5,5.1,8.3,5.1c1.6,0,3.2-0.4,4.7-1.3l24.8-14.8v34.6c0,5.6,4.3,10.1,9.5,10.1c5.3,0,9.5-4.5,9.5-10.1v-34.6l24.8,14.8
	c1.5,0.9,3.1,1.3,4.7,1.3c3.3,0,6.5-1.8,8.3-5.1c2.6-4.8,1-11-3.6-13.7l-34.2-20.4v-62.2l51,31.1l-0.4,41.5c0,5.6,4.2,10.1,9.4,10.2
	c0,0,0.1,0,0.1,0c5.2,0,9.5-4.4,9.5-10l0.3-30.1l28.4,17.3c1.5,0.9,3.1,1.3,4.8,1.3c3.3,0,6.5-1.8,8.3-5
	C421.5,489.4,419.9,483.2,415.4,480.5"/>
</svg>
