<svg xmlns="http://www.w3.org/2000/svg" viewBox="0 0 249.08 299.9"><defs><style>.cls-1{fill:none;stroke:#eee;stroke-miterlimit:10;stroke-width:5px;}</style></defs><g id="Ebene_2" data-name="Ebene 2"><g id="Ebene_1-2" data-name="Ebene 1"><path class="cls-1" d="M241.67,210l-28.4-17.3,24.6-15.3a10.51,10.51,0,0,0,3.4-13.8,9.23,9.23,0,0,0-13-3.6l-33.8,21.1-51-31.1,51-31.1,33.9,21.1a9.5,9.5,0,0,0,4.8,1.4,9.4,9.4,0,0,0,8.2-5,10.32,10.32,0,0,0-3.4-13.8l-24.7-15.3L241.67,90a10.32,10.32,0,0,0,3.5-13.7,9.24,9.24,0,0,0-13-3.7l-28.3,17.3-.3-30.1a9.82,9.82,0,0,0-9.6-10,9.68,9.68,0,0,0-9.4,10.1l.4,41.5-51,31.1V70.3l34.2-20.4a10.33,10.33,0,0,0,3.6-13.7,9.33,9.33,0,0,0-13-3.8L134,47.2V12.6c0-5.6-4.3-10.1-9.5-10.1S115,7,115,12.6V47.2L90.17,32.4a9.33,9.33,0,0,0-13,3.8,10.33,10.33,0,0,0,3.6,13.7L115,70.3v62.2L64,101.4l.4-41.5c0-5.6-4.2-10.1-9.4-10.1h-.1a9.74,9.74,0,0,0-9.5,10l-.3,30.1L16.77,72.6a9.22,9.22,0,0,0-13,3.7A10.3,10.3,0,0,0,7.27,90l28.4,17.3-24.6,15.3a10.51,10.51,0,0,0-3.4,13.8,9.52,9.52,0,0,0,8.2,5,8.61,8.61,0,0,0,4.8-1.4l33.9-21.1,51,31.1-51,31.1L20.77,160a9.21,9.21,0,0,0-13,3.6,10.32,10.32,0,0,0,3.4,13.8l24.6,15.3L7.47,210A10.32,10.32,0,0,0,4,223.7a9.56,9.56,0,0,0,8.3,5,9.38,9.38,0,0,0,4.8-1.3l28.3-17.3.3,30.1a9.8,9.8,0,0,0,9.5,10h.1a9.77,9.77,0,0,0,9.4-10.2l-.4-41.5,51-31.1v62.2L81.07,250a10.33,10.33,0,0,0-3.6,13.7,9.46,9.46,0,0,0,8.3,5.1,9,9,0,0,0,4.7-1.3l24.8-14.8v34.6c0,5.6,4.3,10.1,9.5,10.1s9.5-4.5,9.5-10.1V252.7l24.8,14.8a9,9,0,0,0,4.7,1.3,9.46,9.46,0,0,0,8.3-5.1,10.33,10.33,0,0,0-3.6-13.7l-34.2-20.4V167.4l51,31.1-.4,41.5c0,5.6,4.2,10.1,9.4,10.2h.1a9.74,9.74,0,0,0,9.5-10l.3-30.1,28.4,17.3a9.12,9.12,0,0,0,4.8,1.3,9.56,9.56,0,0,0,8.3-5c2.1-4.8.5-11-4-13.7"/></g></g></svg>